<svg xmlns="http://www.w3.org/2000/svg" viewBox="0 0 128 128" role="img" aria-label="PromptVault icon">
  <defs>
    <linearGradient id="g" x1="0" y1="0" x2="1" y2="1">
      <stop offset="0" stop-color="#124559"/>
      <stop offset="1" stop-color="#598392"/>
    </linearGradient>
    <filter id="s" x="-20%" y="-20%" width="140%" height="140%">
      <feDropShadow dx="0" dy="6" stdDeviation="6" flood-color="#000" flood-opacity=".25"/>
    </filter>
  </defs>
  <rect x="12" y="12" width="104" height="104" rx="26" fill="url(#g)" filter="url(#s)"/>
  <path fill="#ffffff" opacity=".95" d="M40 44c0-6 5-11 11-11h26c6 0 11 5 11 11v44c0 6-5 11-11 11H63.5c-3.1 0-6.1 1.2-8.3 3.4L48 109V44z"/>
  <path fill="#aec3b0" d="M54 52h28a4 4 0 0 1 0 8H54a4 4 0 0 1 0-8zm0 16h20a4 4 0 0 1 0 8H54a4 4 0 0 1 0-8z"/>
</svg>

